<?xml version="1.0" encoding="utf-8"?>
<!-- Generator: Adobe Illustrator 22.1.0, SVG Export Plug-In . SVG Version: 6.00 Build 0)  -->
<svg version="1.1" id="Layer_1" xmlns="http://www.w3.org/2000/svg" xmlns:xlink="http://www.w3.org/1999/xlink" x="0px" y="0px"
	 width="404px" height="85.1px" viewBox="0 0 404 85.1" style="enable-background:new 0 0 404 85.1;" xml:space="preserve">
<style type="text/css">
	.st0{fill:#003A5D;}
	.st1{fill:#AA9767;}
</style>
<g>
	<g>
		<rect x="101.2" class="st0" width="0.5" height="85.1"/>
		<path class="st0" d="M28.6,46.8h-9.2v-5.4h14.9v17.3c-3.7,2.4-8.3,3.7-13.7,3.7C9.4,62.4,0,54.5,0,42.6C0,30,9.9,22.7,21,22.7
			c3.9,0,7.3,0.5,10.5,1.8V30h-0.1c-3.3-1.4-7.1-2-10.4-2c-9.6,0-14.8,6.3-14.8,14.5c0,8.5,6,14.5,14.5,14.5c3,0,5.5-0.4,7.8-1.5
			V46.8z M68.1,61.4l-9.5-20.7l-9.1,20.7h-1.5L36.3,23.8h5.9l7.4,25l8.7-19.2h1.1l8.7,19.1l7.5-24.8h5.6L69.6,61.4H68.1z"/>
		<path class="st1" d="M0,72.9v-5.1h81.2v5.1H0z M0,17.4v-5.1h81.2v5.1H0z"/>
	</g>
</g>
<g>
	<path class="st0" d="M116.6,51.6l1.9-0.7l7.9-19.9l1.1-0.2l1.1-0.3l7.4,20.4l2.2,0.7v1.1h-8.3v-1.1l2.8-0.7l-2-5.7h-7.9l-1.9,5.3
		l3.1,1.1v1.1h-7.4V51.6z M123.5,43.3h6.5l-3.2-9.2h0L123.5,43.3z"/>
	<path class="st0" d="M139.3,45.6c0-5.2,4.2-8.6,8.1-8.6c2.7,0,4.7,1.4,4.7,3.2c0,0.9-0.6,1.8-1.7,1.8c-0.6,0-1.1-0.1-1.1-0.1
		l-0.5-3c-0.1-0.1-0.7-0.5-1.9-0.5c-2.7,0-4.7,2.5-4.7,5.9c0,3.6,2.3,6.6,5.6,6.6c2.3,0,3.8-2,3.8-2l0.6,0.4c0,0-1.4,3.9-5.9,3.9
		C142.6,53.2,139.3,50.6,139.3,45.6z"/>
	<path class="st0" d="M154.6,49.4c0-2.6,1.9-3.8,5.2-4.6l3.3-0.9v-1.7c-0.1-2.5-1.4-3.8-3.1-3.8c-1,0-1.8,0.4-2,0.6l-0.1,3.2
		c0,0-0.8,0.1-1.3,0.1c-1,0-1.6-0.5-1.6-1.4c0-1.5,2.8-3.9,6.2-3.9c3.3,0,4.7,1.5,4.7,4.7v8.7c0,0.6,0.2,0.9,1.1,0.9h1.6v0.9
		c0,0-1.9,0.8-3.1,0.8c-1.6,0-2.3-1.1-2.3-2.5h-0.1c-1.8,1.7-2.6,2.6-4.6,2.6C156.8,53.2,154.6,52,154.6,49.4z M163.2,49.2v-4.3
		l-3.1,1c-1.5,0.5-2.5,1.1-2.5,2.5c0,1.7,1.3,2.5,2.7,2.5C161.8,51,162.8,49.8,163.2,49.2z"/>
	<path class="st0" d="M177.9,29.4l5.7-0.9v22.3l2.6,0.6v1.1l-4.3,0.6l-0.8-2.2c-1.2,1.2-2.6,2.3-4.6,2.3c-4.6,0-6.5-3.8-6.5-7.3
		c0-5.3,3.4-8.9,8.1-8.9c1.2,0,2.1,0.2,2.8,0.3v-6.4l-2.9-0.5V29.4z M180.8,50.1v-9.6c0,0-1.2-2.1-3.5-2.1c-2.5,0-4.6,2.1-4.6,5.9
		c0,3.2,1.3,6.7,5.4,6.7C179.2,51,180.1,50.6,180.8,50.1z"/>
	<path class="st0" d="M187.5,45.7c0-4.8,3.1-8.6,7.6-8.6c3.6,0,5.7,2.4,5.7,6.9h-10.7v0.3c0,4,2.3,6.5,5.7,6.5
		c2.8,0,4.5-2.4,4.5-2.4l0.6,0.4c0,0-1.5,4.5-6.3,4.5C189.2,53.2,187.5,48.4,187.5,45.7z M190.2,42.6h7.3c0-2.2-1-4.2-3.2-4.2
		C192.4,38.5,190.7,40.2,190.2,42.6z"/>
	<path class="st0" d="M222.5,51.6l1.8-0.6v-8.2c-0.1-2.3-0.8-3.5-3-3.5c-1.9,0-3.5,1.3-3.9,1.8v9.9l2.1,0.7v1.1h-6.7v-1.1l1.8-0.6
		v-8.2c-0.1-2.3-0.8-3.5-3-3.5c-2.1,0-3.9,1.8-3.9,1.8v9.9l2.1,0.6v1.1h-6.9v-1.1l2-0.7V40l-2.2-0.5v-0.9l4-1.6h0.2l0.7,2.9h0
		c0.6-0.6,2.6-2.9,5.3-2.9c2.8,0,3.8,1.2,4.1,3.2h0.1c0.3-0.4,2.5-3.2,5.5-3.2c3,0,4.4,1.3,4.4,5.4v8.4l2.1,0.7v1.1h-6.7V51.6z"/>
	<path class="st0" d="M231.2,51.6l2.2-0.7V39.8l-1.9-0.7V38l4.6-0.9v13.8l2.4,0.7v1.1h-7.3V51.6z M232.5,30.5c0-1.1,0.9-2,2-2
		c1,0,2,0.9,2,2c0,1.1-0.9,2-2,2C233.5,32.5,232.5,31.6,232.5,30.5z"/>
	<path class="st0" d="M239.7,45.6c0-5.2,4.2-8.6,8.1-8.6c2.7,0,4.7,1.4,4.7,3.2c0,0.9-0.6,1.8-1.7,1.8c-0.6,0-1.1-0.1-1.1-0.1
		l-0.5-3c-0.1-0.1-0.7-0.5-1.9-0.5c-2.7,0-4.7,2.5-4.7,5.9c0,3.6,2.3,6.6,5.6,6.6c2.3,0,3.8-2,3.8-2l0.6,0.4c0,0-1.4,3.9-5.9,3.9
		C243,53.2,239.7,50.6,239.7,45.6z"/>
</g>
<g>
	<path class="st0" d="M262,42.4c0-6.9,5.2-12,12.3-12c3,0,5.1,0.8,6.8,1.7l0.2,5.4h-1.2l-1.8-4.3c-1-0.6-2.4-1.2-4.3-1.2
		c-4.7,0-8.4,3.7-8.4,9.3c0,6.7,3.8,10.3,8.7,10.3c2,0,3.6-0.8,4.4-1.5l2.4-4.6h1.2l-0.8,5.4c-2.6,1.4-5.1,2.2-8.3,2.2
		C265,53.2,262,47.5,262,42.4z"/>
	<path class="st0" d="M284.9,45.1c0-4.6,3.3-8.4,7.5-8.4c4.6,0,7.5,2.9,7.5,7.8c0,4.7-3.2,8.4-7.5,8.4
		C287.6,52.9,284.9,49.2,284.9,45.1z M292.8,51.5c2.6,0,4.2-2.6,4.2-5.9c0-4.8-2-7.5-4.9-7.5c-2.7,0-4.2,2.6-4.2,5.9
		C287.9,47.5,289.4,51.5,292.8,51.5z"/>
	<path class="st0" d="M321.3,51.3l1.8-0.6v-8.2c-0.1-2.3-0.8-3.5-3-3.5c-1.9,0-3.5,1.3-3.9,1.8v9.9l2.1,0.7v1.1h-6.7v-1.1l1.8-0.6
		v-8.2c-0.1-2.3-0.8-3.5-3-3.5c-2.1,0-3.9,1.8-3.9,1.8v9.9l2.1,0.6v1.1h-6.9v-1.1l2-0.7V39.7l-2.2-0.5v-0.9l4-1.6h0.2l0.7,2.9h0
		c0.6-0.6,2.6-2.9,5.3-2.9c2.8,0,3.8,1.2,4.1,3.2h0.1c0.3-0.4,2.5-3.2,5.5-3.2c3,0,4.4,1.3,4.4,5.4v8.4l2.1,0.7v1.1h-6.7V51.3z"/>
	<path class="st0" d="M349.6,51.3l1.8-0.6v-8.2c-0.1-2.3-0.8-3.5-3-3.5c-1.9,0-3.5,1.3-3.9,1.8v9.9l2.1,0.7v1.1h-6.7v-1.1l1.8-0.6
		v-8.2c-0.1-2.3-0.8-3.5-3-3.5c-2.1,0-3.9,1.8-3.9,1.8v9.9l2.1,0.6v1.1h-6.9v-1.1l2-0.7V39.7l-2.2-0.5v-0.9l4-1.6h0.2l0.7,2.9h0
		c0.6-0.6,2.6-2.9,5.3-2.9c2.8,0,3.8,1.2,4.1,3.2h0.1c0.3-0.4,2.5-3.2,5.5-3.2c3,0,4.4,1.3,4.4,5.4v8.4l2.1,0.7v1.1h-6.7V51.3z"/>
	<path class="st0" d="M357.7,45.1c0-4.6,3.3-8.4,7.5-8.4c4.6,0,7.5,2.9,7.5,7.8c0,4.7-3.2,8.4-7.5,8.4
		C360.4,52.9,357.7,49.2,357.7,45.1z M365.6,51.5c2.6,0,4.2-2.6,4.2-5.9c0-4.8-2-7.5-4.9-7.5c-2.7,0-4.2,2.6-4.2,5.9
		C360.7,47.5,362.2,51.5,365.6,51.5z"/>
	<path class="st0" d="M374.6,51.3l2-0.7V39.7l-2.2-0.5v-0.9l4-1.6h0.2l0.7,2.9h0c0.6-0.6,2.6-2.9,5.3-2.9c3,0,4.4,1.3,4.4,5.4v8.4
		l2.1,0.7v1.1h-6.7v-1.1l1.8-0.6v-8.2c-0.1-2.3-0.8-3.5-3-3.5c-2.1,0-3.9,1.8-3.9,1.8v9.9l2.1,0.6v1.1h-6.9V51.3z"/>
	<path class="st0" d="M393.7,51.7l-0.5-4.5h1.1l1.7,3.6c0.5,0.4,1.2,1,2.7,1c1.6,0,2.8-1,2.8-2.5c0-1.2-0.7-2.2-3.1-3.3l-1.3-0.6
		c-2.2-1-3.3-2.2-3.3-4.2c0-2.5,2.6-4.5,5.6-4.5c1.2,0,2.6,0.4,3.8,1l0.2,3.9h-1l-1.3-2.8c-0.4-0.3-1-0.8-2.2-0.8
		c-1.6,0-2.5,1-2.5,2.2c0,1.3,0.7,2.1,2.6,3l1.4,0.6c2.9,1.3,3.8,2.7,3.8,4.4c0,2.7-3,4.8-6.1,4.8C396.2,53,394.7,52.4,393.7,51.7z"
		/>
</g>
</svg>
